<?xml version="1.0" encoding="utf-8"?>
<!-- Generator: Adobe Illustrator 23.0.3, SVG Export Plug-In . SVG Version: 6.00 Build 0)  -->
<svg version="1.1" id="레이어_1" xmlns="http://www.w3.org/2000/svg" xmlns:xlink="http://www.w3.org/1999/xlink" x="0px"
	 y="0px" viewBox="0 0 50.2 10.6" style="enable-background:new 0 0 50.2 10.6;" xml:space="preserve">
<style type="text/css">
	.st0{fill:#040000;}
</style>
<path class="st0" d="M3.1,2.6C3,2.5,2.9,2.6,2.9,2.7C2.2,3,1.4,2.9,0.7,3.2c0,0.1,0,0.2,0.1,0.2c0.1,0.1,0.3,0,0.5-0.1
	c0.5-0.1,1-0.2,1.5-0.3c0,0.2-0.1,0.4-0.2,0.5C1.9,4.9,1,6.1,0.2,7.4c0.1,0.1,0.1-0.1,0.2-0.1c0.4-0.5,0.7-0.9,1.1-1.4
	c0.7-1,1.4-2,1.7-3.1C3.3,2.7,3.2,2.7,3.1,2.6z"/>
<path class="st0" d="M1.9,5.6c-0.2,0.1,0,0.3,0,0.5c0,1.1-0.3,2.4,0,3.5C2,9.2,1.9,8.7,2,8.3c0-0.8,0.2-1.7,0.1-2.5
	C2.1,5.7,2,5.6,1.9,5.6z"/>
<path class="st0" d="M4.6,2.9C4.4,4,4.1,5.2,4.1,6.4c0,0.2,0,0.5,0,0.7c0.1-0.1,0.1-0.4,0.1-0.6C4.4,5.3,4.7,4.2,4.9,3
	C4.8,3,4.7,2.7,4.6,2.9z"/>
<path class="st0" d="M5.9,2.6c0-0.1-0.2-0.3-0.3-0.1C5.5,2.9,5.5,3.3,5.4,3.7c0,0.4-0.1,0.8,0,1.3C5.5,5,5.5,5,5.6,4.9
	c0.1-0.3,0.1-0.8,0.1-1.1c0.1,0-0.1-0.1,0-0.2C5.8,3.3,5.9,3,5.9,2.6z"/>
<path class="st0" d="M7.4,1.8C7.2,1.8,7.2,2,7.2,2.1C7.1,2.8,7.1,3.5,7,4.2C6.6,4.3,6.2,4.6,5.9,5C5.9,5.5,6,6.1,6.5,6.5
	c0.2,0,0.3,0.2,0.4,0C7.1,5.8,7.1,5,7.3,4.3l0.1-0.1c0,0,0.1-0.2,0-0.2C7.4,3.7,7.4,3.3,7.4,3l0.1,0c0-0.4,0.1-0.7,0.1-1.1
	C7.6,1.8,7.4,1.8,7.4,1.8z M6.8,5.4c0,0.2-0.1,0.6-0.1,0.8C6.5,6.1,6.4,5.9,6.3,5.7C6.3,5.5,6.2,5.1,6.4,4.9l0.5-0.4
	C6.9,4.8,6.8,5.1,6.8,5.4z"/>
<path class="st0" d="M8.8,6L8.8,6L8.8,6c0,0.3,0,0.6,0,0.9c0,0.3-0.1,0.7-0.1,0.9C8.5,8,8.5,8.3,8.2,8.3c-0.1-0.6,0.1-1,0.3-1.5
	c0-0.2,0.3-0.3,0.2-0.6C8.3,6.1,8.3,6.6,8.1,6.8C8.1,6.9,8,7,8,7.2C7.8,7.6,7.7,8.1,8,8.6c0.1,0.1,0.3,0.1,0.5,0.1
	c0.5-0.4,0.6-1,0.7-1.5C9,6.8,9.3,6.3,8.8,6z"/>
<path class="st0" d="M12.1,2.3c-0.2,0-0.5,0.1-0.8,0.1c0,0.1-0.2,0-0.2,0.1v0c-0.1,0.1-0.4,0.1-0.5,0.2c-0.1,0-0.2,0.1-0.4,0.1
	c-0.1,0-0.1,0.1-0.2,0.1C10,2.9,9.9,2.9,9.8,3c0.1-0.3,0.1-0.7,0.1-1C10,1.7,10,1.3,10.1,1.1L10,0.9c-0.1-0.1-0.1,0-0.1,0
	C9.6,1.7,9.6,2.4,9.4,3.2C9.4,3.3,9.3,3.3,9.3,3.4c0,0.1,0.1,0.1,0.1,0.2c0,0.2-0.1,0.4-0.1,0.5c0,0.2-0.1,0.4,0,0.6
	c0.1,0,0.2,0.3,0.3,0.1C9.6,4.4,9.6,4,9.7,3.7c0-0.1,0-0.2,0-0.2C10.5,3,11.4,2.7,12.1,2.3C12.2,2.4,12.2,2.3,12.1,2.3z"/>
<path class="st0" d="M14.2,1.1c-0.1,0.3-0.2,0.7-0.4,1c-0.3,0.6-0.7,1.2-1.1,1.8c-0.1,0.1-0.1,0.2-0.2,0.3c0,0.1-0.1,0.2-0.2,0.2
	c0,0.2-0.3,0.2-0.3,0.4l0,0c-0.1,0-0.1,0.2-0.2,0.2c0,0.1-0.2,0.1-0.2,0.2c0,0-0.1,0.1-0.1,0.2l0.1,0c0.3-0.2,0.5-0.5,0.8-0.7
	c0.9-1.1,1.8-2.3,2.1-3.6C14.5,1.1,14.2,0.9,14.2,1.1z"/>
<path class="st0" d="M16.5,6.9C16.2,7,16,6.9,15.8,7c-0.5,0.1-1,0.2-1.5,0.3c-0.1,0-0.2,0.1-0.3,0c0.2-0.6,0.4-1.3,0.6-2
	c0,0-0.1-0.1-0.1-0.1c-0.1-0.1-0.1,0-0.2,0c-0.1,0.2-0.1,0.4-0.2,0.6c-0.1,0.5-0.3,1.1-0.5,1.6c-0.3,0-0.6,0.3-0.9,0.3
	c-0.1,0-0.2,0.1-0.1,0.2c0,0.1,0.2,0.1,0.2,0.2c0.1,0,0.3,0,0.4-0.1c0.1-0.3,0.5-0.1,0.7-0.3c1-0.3,2-0.5,3-0.9l-0.1-0.1
	C16.6,6.9,16.5,6.9,16.5,6.9z"/>
<path class="st0" d="M16.1,3.5c-0.6,0-1.3,0-1.8,0.1c-0.2,0-0.6-0.1-0.6,0.2C13.8,4,14,3.9,14.2,4c1-0.2,2-0.1,3-0.2
	c0,0,0.1,0,0.1-0.1c0,0-0.1,0-0.2-0.1L16.1,3.5z"/>
<path class="st0" d="M19.9,6.3c-0.7,0.1-1.4,0.5-2,0.5c0.1-0.7,0.3-1.2,0.3-1.9c-0.1-0.1-0.2-0.1-0.3-0.2c-0.2,0.1,0,0.6-0.1,0.8
	l0,0c0,0.2,0,0.4-0.1,0.6c0,0.3-0.1,0.7-0.2,0.9c0.1,0.1,0.1,0.2,0.3,0.2c0.8-0.2,1.6-0.5,2.4-0.8c0.1,0,0.2-0.1,0.2-0.2
	C20.1,6.3,20,6.3,19.9,6.3z"/>
<path class="st0" d="M19.5,4.1c0.6-0.2,1.2-0.5,1.8-0.7c0.1-0.1,0.3-0.1,0.4-0.3c-0.1-0.1-0.2-0.1-0.3-0.1c-0.5,0.2-1,0.3-1.5,0.5
	c-0.2,0.1-0.5,0.1-0.5,0.4C19.3,4,19.4,4.1,19.5,4.1z"/>
<path class="st0" d="M22.4,2.9c-0.1,0.1,0,0.3-0.1,0.5c0,0.1,0,0.3-0.1,0.4c0,0.1,0,0.3,0,0.3c0,0.1,0,0.1-0.1,0.2
	c-0.5,0.2-1,0.4-1.5,0.6C20.4,5,20.1,5,19.8,5.2c-0.1,0.1-0.4,0-0.4,0.3c0,0.1,0.1,0.2,0.3,0.2c0.6-0.3,1.1-0.6,1.8-0.7
	c0.2-0.1,0.4-0.2,0.7-0.3c-0.1,0.1,0,0.3-0.1,0.4c-0.1,0.2,0,0.4,0,0.6c-0.1,0.2,0,0.5,0,0.7c0,0.2,0,0.4,0.1,0.6
	c0,0,0.1-0.1,0.1-0.1c0.1-1.4,0.4-2.6,0.5-3.8C22.7,2.9,22.5,2.9,22.4,2.9z"/>
<path class="st0" d="M23.4,4.9l0.4,0c0.1,0,0-0.2,0-0.2c1.4-0.4,3-0.7,4.4-1c0.2-0.1,0.6,0,0.7-0.2c0,0,0-0.1,0-0.1
	c-0.2,0-0.4,0-0.5,0l-0.1,0c-0.6,0.1-1.1,0.2-1.7,0.3c-0.1,0.1-0.2,0-0.3,0.1c-0.5,0-1,0.2-1.5,0.3c-0.6,0.2-1.2,0.3-1.7,0.6
	c-0.1,0.1,0,0.1,0,0.2C23.1,4.9,23.3,4.9,23.4,4.9z"/>
<path class="st0" d="M29.1,9.1c-0.5,0-0.8,0.1-1.3,0.1c-0.1,0-0.3,0.1-0.4,0.1l-1,0.1c-0.4,0.1-0.9,0.1-1.4,0.2
	c-0.6,0.1-0.7,0.1-1.3,0.1c1.2-0.7,2.1-1.3,3.2-2.3c0.1-0.1,0.1-0.2,0.1-0.3C26.9,7,26.8,7,26.7,7c-0.4,0.1-0.9,0.2-1.3,0.3
	c-0.4,0.1-0.8,0.3-1.2,0.2c0.9-0.6,1.8-1.1,2.6-1.8c0.1-0.2,0.4-0.3,0.4-0.6C27.2,5,27.1,5,27,5c-0.8,0-1.6,0.3-2.4,0.5
	c-0.1,0.1-0.4,0.1-0.4,0.4c0.1,0.1,0.1,0.2,0.2,0.2c0.6-0.4,1.3-0.6,2.1-0.7h0.1c-0.1,0.2-0.4,0.3-0.5,0.4c-0.8,0.6-1.6,1-2.4,1.6
	c0,0.1,0,0.4,0.2,0.5c0.6,0.3,1.2-0.1,1.8-0.3c0.1-0.1,0.4-0.1,0.5-0.1l0,0c-0.9,0.7-1.5,1.3-2.6,1.8c-0.2,0.2-0.6,0.2-0.5,0.5
	c0.3,0.5,0.8,0.3,1.3,0.3c0,0,0.1,0,0.1,0c1-0.2,1.1-0.2,1.2-0.2c0.2-0.1,0.4-0.1,0.6-0.1c0.1,0,0.2-0.1,0.4,0
	c0.6-0.1,0.4-0.1,1.1-0.2c0.4,0,0.7-0.1,1.1-0.2c0-0.1,0.1,0,0.1,0c0.1,0,0.1-0.1,0.1-0.1c0,0,0,0,0,0C29.1,9.2,29.1,9.1,29.1,9.1
	C29.1,9.1,29.1,9.1,29.1,9.1z"/>
<path class="st0" d="M24.9,0.9c0.1,0.5,0,0.9-0.3,1.3c-0.1,0.2-0.3,0.3-0.2,0.5c0,0.1,0.1,0.1,0.2,0.1c1-0.3,2.1-0.6,3.1-0.9
	c-0.1-0.1,0.1-0.1,0-0.1c0,0-0.1,0-0.2,0c-0.1,0-0.2,0-0.3,0c-0.6,0.1-1.3,0.3-1.9,0.5c-0.1,0-0.2,0.1-0.3,0
	c0.3-0.4,0.4-0.9,0.1-1.4c0.5-0.2,0.8-0.2,1.3-0.3l0.1-0.1c0,0,0-0.1-0.1-0.2c-0.2,0-0.4-0.1-0.6,0c-0.1,0-0.3,0.1-0.4,0.1
	c-0.5,0.1-1,0.3-1.5,0.5c0,0.1,0.1,0.2,0.2,0.3C24.4,1,24.6,0.9,24.9,0.9z"/>
<path class="st0" d="M28.3,6.7c0,0.1,0.1,0.1,0.2,0.2c0.3,0,0.5-0.2,0.7-0.2c0.3-0.1,0.6-0.2,0.8-0.4c0.2,0,0.4-0.2,0.6-0.3l0,0
	c0.1-0.1,0.3,0,0.4-0.1c0.2-0.1,0.4-0.1,0.5-0.2l0.1,0c0,0,0.1-0.1,0.1-0.1l0,0c0,0,0,0,0.1,0c0,0,0,0,0,0l0.1-0.1c0,0,0,0,0,0
	L32,5.5c0.1,0,0.1-0.1,0.2-0.1l-0.1,0l0,0c0,0,0,0-0.1,0c-0.1,0.1-0.1,0-0.3,0c0,0.1,0,0-0.1,0c-0.1,0-0.2,0-0.2,0.1l0,0
	c-0.1,0.1-0.2,0-0.2,0.1c-0.2,0-0.5,0.1-0.8,0.2c-0.2,0.1-0.4,0.1-0.6,0.2c-0.5,0.1-1,0.4-1.4,0.5C28.4,6.6,28.3,6.6,28.3,6.7z"/>
<path class="st0" d="M34.3,8c-0.1,0-0.3,0-0.4,0l-0.1,0l0.1,0c-0.1,0-0.2,0-0.4,0c-0.1,0-0.3,0.1-0.5,0.1L29.6,9l0-0.1
	c0.1-0.4,0.3-1,0.4-1.4c0-0.1-0.3-0.2-0.3-0.1c-0.1,0.6-0.3,1.2-0.5,1.7c0,0,0,0,0.1,0l0.1,0l0.1,0l0.1,0l0.1,0.1
	c-0.1,0-0.3,0-0.3,0.1c0,0.1,0.1,0.1,0.2,0.1c0.4-0.1,0.9-0.2,1.3-0.3C30.7,9,30.8,9,31,9c0.1,0,0.3-0.1,0.4-0.1
	c0.1-0.1,0.2,0,0.3-0.1c0.1,0.1,0.2-0.1,0.3,0c0-0.1,0.1,0,0.2-0.1c0,0,0,0,0,0l0.2-0.1l0.5-0.2c0,0,0.1,0,0.2-0.1l0.2,0l0,0l0,0
	l0.2,0l-0.1,0l0.1,0c0.1,0,0.2,0,0.3,0l0,0l0.1,0c0,0,0-0.1,0-0.1l0,0.1l0,0c0,0.1,0.1-0.1,0.2,0c0.1,0,0-0.1,0.1,0c0,0,0,0,0,0l0,0
	l0.1,0c0,0,0.1,0,0.1,0h0c0,0,0,0,0-0.1C34.4,8,34.4,8.1,34.3,8z"/>
<path class="st0" d="M30.6,3.6c0.3-0.1,0.4-0.4,0.5-0.7c0-0.1,0-0.1,0-0.2c0-0.2,0.1-0.3,0.1-0.5c-0.1-0.2,0.1-0.3,0-0.4
	c0-0.1-0.1-0.1,0-0.2c-0.1-0.1,0-0.3-0.1-0.4c0-0.1,0-0.1,0-0.2c0-0.1-0.1-0.1-0.2-0.1v0.1C31,1,30.9,1.1,31,1.2l0,0
	c0,0.6,0.1,1.6-0.4,2c-0.1,0-0.1,0-0.2-0.1c-0.1-0.6,0.1-1.1,0.3-1.6c0,0-0.1-0.1-0.1-0.1c-0.1,0-0.1-0.1-0.2,0
	c-0.3,0.6-0.5,1.2-0.3,1.9C30.2,3.5,30.4,3.6,30.6,3.6z"/>
<path class="st0" d="M36.6,4.5c0,0-0.1,0-0.2,0c0-0.1-0.1-0.1-0.1-0.2c-0.1,0-0.1-0.1-0.2,0.1c-0.2,0.6-0.3,1-0.5,1.9
	c0,0.3-0.1,0.7,0.2,0.9c0.1,0,0.3,0,0.4,0c0.6-0.5,0.6-1.2,0.7-1.8c0-0.1,0-0.2,0-0.3C36.8,4.9,36.7,4.7,36.6,4.5z M36,6.9
	c-0.1,0-0.1-0.1-0.1-0.1c0-0.7,0.3-1.3,0.4-2.1c0.1,0,0.1,0.1,0.2,0.2C36.5,5.6,36.5,6.4,36,6.9z"/>
<path class="st0" d="M39.2,4.1c0,0.3,0,0.6,0,0.9c-0.1,0.1-0.4,0.3-0.6,0.3c-0.5,0.2-1.1,0.3-1.5,0.8c-0.1,0.1,0,0.2,0.1,0.2
	c0.1,0,0.1,0,0.2,0c0.3-0.4,0.9-0.4,1.3-0.6c0.1,0,0.3-0.1,0.4-0.2l-0.2,1.7c0,0.2-0.1,0.5,0,0.6c0.1,0,0.2-0.1,0.2-0.3
	c0.2-1.1,0.3-2.1,0.5-3.3C39.5,4,39.2,3.8,39.2,4.1z"/>
<path class="st0" d="M42.5,2.4L42.5,2.4L42.5,2.4c-0.3-0.1-0.5,0-0.7,0c-0.2,0-0.3,0.2-0.4,0.1c-0.5,0.1-1,0.3-1.5,0.5l-0.1,0.1
	c0,0.2,0.2,0.3,0.4,0.2C40.9,3,41.7,2.8,42.5,2.4z"/>
<path class="st0" d="M44,2.6c-0.2,0.1-0.2,0.4-0.2,0.6c-0.1,0.1-0.1,0.2-0.1,0.2c-0.1,0.4-0.1,0.9-0.2,1.2c-0.1,0.1-0.2,0.1-0.2,0.1
	c-0.9,0.3-1.9,0.6-2.8,0.8C40.7,5,40.9,4,41,3.4c-0.1-0.1-0.1-0.2-0.3-0.1c-0.1,0.1-0.1,0.3-0.1,0.4c-0.1,0.3-0.1,0.6-0.2,0.9
	c-0.1,0.4-0.2,0.8-0.4,1.2c0.1,0.1,0.2,0.3,0.3,0.3c0.6-0.3,1.4-0.5,2.1-0.7c0.1,0,0.2,0,0.3-0.1C43,5.2,43.3,5,43.5,5
	c0,0.1,0,0.2,0,0.3c-0.1,0.2,0,0.4-0.1,0.6c0,0.1,0,0.2,0,0.3c0,0.5-0.1,0.9-0.2,1.4c0.1,0.1,0.1,0.1,0.1,0.1c0-0.1,0.1-0.2,0.2-0.3
	c0.1-0.5,0.2-1.2,0.3-1.7c0.1-0.9,0.2-1.9,0.5-2.8C44.2,2.8,44.1,2.7,44,2.6z"/>
<path class="st0" d="M50.2,7.7c-0.1,0.1-0.1,0-0.3,0c0,0-0.1,0-0.2,0c-0.1,0-0.1,0.1-0.1,0c-0.1,0-0.2,0.1-0.3,0
	c-0.1,0-0.2,0-0.2,0.1c-0.1-0.1-0.1,0.1-0.2,0c0,0,0,0,0,0h-0.2c0,0.1-0.1,0.1-0.2,0.1l0,0c-0.1,0-0.2,0.1-0.3,0
	c-0.7,0.1-1.5,0.2-2.1,0.3v0c0,0,0,0,0.1,0c0-0.1,0.1-0.1,0-0.2c0.1,0,0,0,0.1,0V7.8h0c0,0,0,0,0,0.1c0,0,0,0,0,0
	c0-0.1,0.1-0.2,0.2-0.3c0,0-0.1,0-0.1-0.1c0,0,0.1,0,0.1,0c0.1,0,0.1-0.1,0.1-0.1c0.1,0,0.1-0.2,0.2-0.3C46.7,7,46.9,7,46.8,6.9
	l0.1,0v0C47,6.6,47,6.3,47.2,6l-0.1-0.2c-0.1,0-0.2-0.1-0.2,0c-0.1,0.6-0.4,1.2-0.8,1.8L46,7.7l-0.4,0.5c-0.3,0.1-0.7,0.1-1,0.3
	c0,0,0,0,0,0.1l0,0c0,0.1,0.1,0.2,0.2,0.2c0.1,0,0.3,0,0.5-0.2c0.2,0,0.3,0,0.4-0.1c0,0,0,0,0.1,0c0-0.2,0.2,0,0.3-0.1
	c0.2,0,0.3-0.2,0.4-0.1c0.1-0.1,0.3-0.1,0.4-0.1c0.1-0.1,0.5,0,0.6-0.2c0.1,0.2,0.2-0.1,0.4,0l0,0l0.1,0l0,0l0.6-0.1
	c0.1,0,0.2,0,0.3-0.1l0.1,0l0.1,0l0,0c0,0,0.1,0,0.1,0l0-0.1c0,0,0,0,0,0l0,0c0,0,0,0,0,0v0l0.2,0c0-0.1,0.1-0.1,0.1,0l0.1,0l0.1,0
	c0,0,0.1,0,0.1,0c0,0,0.1-0.1,0.1,0L50.2,7.7L50.2,7.7z"/>
<path class="st0" d="M45.3,4c0.1,0,0.2,0.1,0.3,0.1c0.1,0,0.2-0.1,0.2,0C45.8,4,45.9,4,46,4c0.3-0.1,0.6-0.1,0.9-0.2
	c0,0,0-0.1,0-0.1c0.1,0,0,0,0.1,0s0,0,0,0l0.1,0c-0.3,0.4-0.8,0.8-1.1,1.1c-0.2,0.3-0.5,0.4-0.6,0.7c0.1,0.2,0.3,0.2,0.5,0.2
	c0,0.1,0.1,0,0.2,0c0.1,0,0.3-0.1,0.4-0.1l0,0c0.1-0.1,0.3-0.1,0.3-0.2l0.1,0c0-0.1,0.1,0,0.2,0c0-0.1,0.2,0,0.2-0.1
	c0,0.1,0.1,0,0.1,0c0,0,0.1,0,0.1-0.1c0.2,0,0.3-0.1,0.5-0.1H48c0-0.1,0.1-0.1,0.2-0.1c0,0,0-0.1,0-0.1l0.1,0l0.1,0L48.5,5l0-0.1
	c-0.1,0-0.1,0-0.1,0c-0.1,0-0.1,0.1-0.1,0c-0.7,0.2-1.7,0.4-2.4,0.6L46,5.3c0,0,0,0,0.1,0c0.1-0.2,0.5-0.4,0.6-0.6l0-0.1l-0.1,0l0,0
	c0,0,0.1,0,0.1,0c0,0,0.1-0.1,0.1-0.1L47,4.3c0.1,0,0.1-0.1,0.2-0.2c0.1,0,0.1-0.1,0-0.1l0.1,0l0,0.1c0,0,0-0.1,0.1-0.1
	c0-0.1,0.2,0,0.3-0.2c0.1-0.1-0.1-0.1,0-0.1c-0.1-0.2-0.4-0.2-0.5-0.1c-0.1,0.1-0.2,0-0.3,0c-0.3,0-0.5,0.1-0.9,0.2
	c-0.1,0.1-0.3,0.1-0.4,0.1c0,0.1-0.1,0-0.1,0l0,0c0-0.1,0.2-0.2,0.2-0.3c0,0,0.1,0,0.1,0c-0.1,0,0-0.1,0-0.1c0,0,0,0,0,0h0
	c0,0,0,0,0.1,0c0,0,0,0,0-0.1l0.1,0l0,0c0,0,0,0,0,0c0.1,0,0,0,0,0.1C46,3.1,46.1,3,46.1,3l0.1,0l-0.1,0c0-0.1,0,0,0.1-0.1
	c0-0.1,0.1-0.1,0.1,0h0c0,0,0,0-0.1,0l0.1-0.1c0.1,0,0.1-0.2,0.2-0.1c0-0.1,0.1,0,0.1-0.1c-0.1,0-0.1-0.1-0.1-0.1l0.1,0c0,0,0,0,0,0
	l0.1-0.1l0,0c0.2,0,0.1-0.2,0.2-0.3v0.1c0.1,0-0.1-0.1,0-0.2c0.1-0.1,0,0.1,0.1,0c0,0,0,0,0.1-0.1c0,0-0.1,0-0.1,0
	c0.1,0,0.1,0,0.2-0.1c0.1-0.2,0.2-0.2,0.3-0.4c-0.1,0-0.2-0.2-0.3-0.1c0-0.1-0.1-0.2-0.3-0.1c-0.2,0.1-0.4,0-0.5,0.1
	c-0.2,0-0.3,0.1-0.5,0.1c-0.1,0-0.2,0.2-0.3,0.1c-0.1,0.1-0.3,0.1-0.5,0.2C45.6,1.9,45.6,2,45.8,2c0.4-0.1,1-0.4,1.4-0.5h0
	c-0.4,0.4-0.8,0.8-1.2,1.1c-0.4,0.3-0.8,0.6-1,1.1C45,3.9,45.2,4.1,45.3,4z"/>
</svg>
